<svg xmlns="http://www.w3.org/2000/svg" xmlns:xlink="http://www.w3.org/1999/xlink" width="300" zoomAndPan="magnify" viewBox="0 0 224.87999 74.999997" height="100" preserveAspectRatio="xMidYMid meet" version="1.0"><defs><g/><clipPath id="f6db2d3faf"><path d="M 10.824219 2.566406 L 80.695312 2.566406 L 80.695312 72.433594 L 10.824219 72.433594 Z M 10.824219 2.566406 " clip-rule="nonzero"/></clipPath><clipPath id="7454664f54"><path d="M 45.757812 2.566406 C 26.464844 2.566406 10.824219 18.207031 10.824219 37.5 C 10.824219 56.792969 26.464844 72.433594 45.757812 72.433594 C 65.054688 72.433594 80.695312 56.792969 80.695312 37.5 C 80.695312 18.207031 65.054688 2.566406 45.757812 2.566406 Z M 45.757812 2.566406 " clip-rule="nonzero"/></clipPath><clipPath id="90efbd87e9"><path d="M 49.636719 14.582031 L 55.847656 14.582031 L 55.847656 20.792969 L 49.636719 20.792969 Z M 49.636719 14.582031 " clip-rule="nonzero"/></clipPath><clipPath id="7589a5d3a3"><path d="M 52.742188 14.582031 C 51.027344 14.582031 49.636719 15.972656 49.636719 17.6875 C 49.636719 19.402344 51.027344 20.792969 52.742188 20.792969 C 54.457031 20.792969 55.847656 19.402344 55.847656 17.6875 C 55.847656 15.972656 54.457031 14.582031 52.742188 14.582031 Z M 52.742188 14.582031 " clip-rule="nonzero"/></clipPath><clipPath id="07de3d4019"><path d="M 34.496094 14.582031 L 40.707031 14.582031 L 40.707031 20.792969 L 34.496094 20.792969 Z M 34.496094 14.582031 " clip-rule="nonzero"/></clipPath><clipPath id="88e9ebbcd1"><path d="M 37.601562 14.582031 C 35.886719 14.582031 34.496094 15.972656 34.496094 17.6875 C 34.496094 19.402344 35.886719 20.792969 37.601562 20.792969 C 39.316406 20.792969 40.707031 19.402344 40.707031 17.6875 C 40.707031 15.972656 39.316406 14.582031 37.601562 14.582031 Z M 37.601562 14.582031 " clip-rule="nonzero"/></clipPath></defs><g clip-path="url(#f6db2d3faf)"><g clip-path="url(#7454664f54)"><path fill="#ffffff" d="M 10.824219 2.566406 L 80.695312 2.566406 L 80.695312 72.433594 L 10.824219 72.433594 Z M 10.824219 2.566406 " fill-opacity="1" fill-rule="nonzero"/></g></g><g fill="#222222" fill-opacity="1"><g transform="translate(31.884394, 60.044615)"><g><path d="M 11.953125 0.21875 L 2.203125 -24.953125 L -0.375 -25.640625 L -0.375 -27.375 L 9.75 -27.375 L 9.75 -25.640625 L 6.59375 -24.953125 L 6.59375 -24.328125 L 13.015625 -6.546875 L 13.515625 -5.109375 L 14.109375 -6.71875 L 20.265625 -24.203125 L 20.265625 -24.953125 L 16.890625 -25.640625 L 16.890625 -27.375 L 25.8125 -27.375 L 25.8125 -25.640625 L 23.3125 -24.953125 L 14.015625 0.21875 Z M 11.953125 0.21875 "/></g></g></g><g fill="#222222" fill-opacity="1"><g transform="translate(52.786243, 60.044615)"><g><path d="M 9.96875 0.375 C 7.09375 0.375 4.890625 -0.566406 3.359375 -2.453125 C 1.828125 -4.335938 1.0625 -6.898438 1.0625 -10.140625 C 1.0625 -12.140625 1.453125 -13.988281 2.234375 -15.6875 C 3.023438 -17.394531 4.148438 -18.753906 5.609375 -19.765625 C 7.078125 -20.773438 8.785156 -21.28125 10.734375 -21.28125 C 13.679688 -21.28125 15.929688 -20.375 17.484375 -18.5625 C 19.035156 -16.75 19.8125 -14.265625 19.8125 -11.109375 C 19.8125 -8.941406 19.429688 -6.984375 18.671875 -5.234375 C 17.910156 -3.492188 16.789062 -2.125 15.3125 -1.125 C 13.832031 -0.125 12.050781 0.375 9.96875 0.375 Z M 10.765625 -2.0625 C 12.679688 -2.0625 14.03125 -2.75 14.8125 -4.125 C 15.601562 -5.507812 16 -7.582031 16 -10.34375 C 16 -13.300781 15.582031 -15.457031 14.75 -16.8125 C 13.925781 -18.164062 12.5 -18.84375 10.46875 -18.84375 C 8.945312 -18.84375 7.78125 -18.515625 6.96875 -17.859375 C 6.15625 -17.210938 5.597656 -16.289062 5.296875 -15.09375 C 5.003906 -13.894531 4.859375 -12.3125 4.859375 -10.34375 C 4.859375 -7.644531 5.300781 -5.585938 6.1875 -4.171875 C 7.070312 -2.765625 8.597656 -2.0625 10.765625 -2.0625 Z M 10.765625 -2.0625 "/></g></g></g><g fill="#222222" fill-opacity="1"><g transform="translate(69.254256, 60.044615)"><g><path d="M 0.796875 -1.734375 L 4.1875 -2.328125 L 4.1875 -26.265625 L 0.796875 -26.859375 L 0.796875 -28.59375 L 6.671875 -29.515625 L 7.640625 -29.140625 L 7.640625 -2.328125 L 10.9375 -1.734375 L 10.9375 0 L 0.796875 0 Z M 0.796875 -1.734375 "/></g></g></g><g fill="#222222" fill-opacity="1"><g transform="translate(76.685703, 60.044615)"><g><path d="M 10.015625 0.375 C 8.035156 0.375 6.503906 -0.128906 5.421875 -1.140625 C 4.335938 -2.148438 3.796875 -3.585938 3.796875 -5.453125 L 3.796875 -17.90625 L 0.296875 -18.5 L 0.296875 -20.109375 L 6.078125 -21.28125 L 7.265625 -20.6875 L 7.265625 -7.265625 C 7.265625 -5.429688 7.601562 -4.15625 8.28125 -3.4375 C 8.957031 -2.71875 10.15625 -2.359375 11.875 -2.359375 C 12.457031 -2.359375 13.132812 -2.472656 13.90625 -2.703125 C 14.6875 -2.929688 15.375 -3.210938 15.96875 -3.546875 L 15.96875 -17.90625 L 12.5 -18.5 L 12.5 -20.109375 L 18.28125 -21.28125 L 19.46875 -20.6875 L 19.46875 -3 L 22.46875 -2.328125 L 22.46875 -0.71875 L 16.59375 0.125 L 15.96875 -1.984375 L 15.921875 -1.9375 C 15.304688 -1.238281 14.445312 -0.675781 13.34375 -0.25 C 12.25 0.164062 11.140625 0.375 10.015625 0.375 Z M 10.015625 0.375 "/></g></g></g><g fill="#222222" fill-opacity="1"><g transform="translate(95.687334, 60.044615)"><g><path d="M 1.09375 -1.734375 L 4.484375 -2.328125 L 4.484375 -17.359375 L 1.09375 -17.953125 L 1.09375 -19.6875 L 7.390625 -20.859375 L 7.734375 -19.46875 L 7.8125 -19.21875 C 10.375 -20.59375 12.628906 -21.28125 14.578125 -21.28125 C 16.316406 -21.28125 17.671875 -20.773438 18.640625 -19.765625 C 19.617188 -18.753906 20.109375 -17.332031 20.109375 -15.5 L 20.109375 -2.328125 L 23.484375 -1.734375 L 23.484375 0 L 13.34375 0 L 13.34375 -1.734375 L 16.640625 -2.328125 L 16.640625 -14.90625 C 16.640625 -16.113281 16.285156 -16.984375 15.578125 -17.515625 C 14.878906 -18.054688 13.753906 -18.328125 12.203125 -18.328125 C 11.472656 -18.328125 10.695312 -18.273438 9.875 -18.171875 C 9.0625 -18.078125 8.414062 -17.960938 7.9375 -17.828125 L 7.9375 -2.328125 L 11.234375 -1.734375 L 11.234375 0 L 1.09375 0 Z M 1.09375 -1.734375 "/></g></g></g><g fill="#222222" fill-opacity="1"><g transform="translate(115.491278, 60.044615)"><g><path d="M 0.546875 -18.671875 L 0.546875 -20.4375 L 3.84375 -21.328125 L 4.859375 -25.71875 L 7.3125 -25.71875 L 7.3125 -20.90625 L 13.265625 -20.90625 L 13.265625 -19.71875 L 12.671875 -18.671875 L 7.3125 -18.671875 L 7.3125 -4.8125 C 7.3125 -3.96875 7.472656 -3.40625 7.796875 -3.125 C 8.117188 -2.84375 8.660156 -2.703125 9.421875 -2.703125 C 10.097656 -2.703125 10.78125 -2.78125 11.46875 -2.9375 C 12.15625 -3.09375 12.597656 -3.195312 12.796875 -3.25 L 13.21875 -1.90625 C 13.269531 -1.90625 13.019531 -1.710938 12.46875 -1.328125 C 11.925781 -0.953125 11.285156 -0.609375 10.546875 -0.296875 C 9.816406 0.015625 9.101562 0.171875 8.40625 0.171875 C 6.71875 0.171875 5.535156 -0.226562 4.859375 -1.03125 C 4.179688 -1.832031 3.84375 -2.992188 3.84375 -4.515625 L 3.84375 -18.671875 Z M 0.546875 -18.671875 "/></g></g></g><g fill="#222222" fill-opacity="1"><g transform="translate(125.456343, 60.044615)"><g><path d="M 5.828125 -2.53125 L 5.828125 -24.828125 L 2.328125 -25.546875 L 2.328125 -27.375 L 21.671875 -27.375 L 21.671875 -20.4375 L 19.59375 -20.4375 L 18.703125 -25.046875 L 13.59375 -25.046875 L 9.453125 -24.796875 L 9.453125 -15.125 L 16.140625 -15.125 L 16.765625 -17.609375 L 18.546875 -17.609375 L 18.546875 -10.390625 L 16.765625 -10.390625 L 16.140625 -12.875 L 9.453125 -12.875 L 9.453125 -2.828125 C 9.992188 -2.710938 10.6875 -2.613281 11.53125 -2.53125 C 12.375 -2.445312 13.191406 -2.40625 13.984375 -2.40625 L 19.046875 -2.40625 L 19.984375 -6.921875 L 22.046875 -6.921875 L 22.046875 0 L 2.328125 0 L 2.328125 -1.8125 Z M 5.828125 -2.53125 "/></g></g></g><g fill="#222222" fill-opacity="1"><g transform="translate(145.09138, 60.044615)"><g><path d="M 7.609375 0.296875 C 5.578125 0.296875 4.066406 -0.191406 3.078125 -1.171875 C 2.097656 -2.160156 1.609375 -3.414062 1.609375 -4.9375 C 1.609375 -8.488281 4.128906 -10.613281 9.171875 -11.3125 L 12.96875 -11.875 L 12.96875 -15.03125 C 12.96875 -17.394531 11.585938 -18.578125 8.828125 -18.578125 C 8.203125 -18.578125 7.644531 -18.523438 7.15625 -18.421875 C 6.664062 -18.328125 6.347656 -18.269531 6.203125 -18.25 L 5.578125 -14.359375 C 5.578125 -14.328125 5.445312 -14.269531 5.1875 -14.1875 C 4.9375 -14.101562 4.613281 -14.0625 4.21875 -14.0625 C 3.71875 -14.0625 3.269531 -14.242188 2.875 -14.609375 C 2.476562 -14.972656 2.28125 -15.4375 2.28125 -16 C 2.28125 -17.070312 2.800781 -18.007812 3.84375 -18.8125 C 4.882812 -19.613281 6.101562 -20.222656 7.5 -20.640625 C 8.894531 -21.066406 10.023438 -21.28125 10.890625 -21.28125 C 12.671875 -21.28125 14.035156 -20.820312 14.984375 -19.90625 C 15.941406 -19 16.421875 -17.835938 16.421875 -16.421875 L 16.421875 -2.875 L 19.421875 -2.28125 L 19.421875 -0.671875 C 19.316406 -0.617188 19.066406 -0.53125 18.671875 -0.40625 C 18.273438 -0.28125 17.765625 -0.148438 17.140625 -0.015625 C 16.523438 0.109375 15.878906 0.171875 15.203125 0.171875 C 13.960938 0.171875 13.285156 -0.476562 13.171875 -1.78125 L 13.015625 -1.78125 C 12.640625 -1.382812 11.9375 -0.9375 10.90625 -0.4375 C 9.882812 0.0507812 8.785156 0.296875 7.609375 0.296875 Z M 9.203125 -2.359375 C 9.828125 -2.359375 10.421875 -2.414062 10.984375 -2.53125 C 11.546875 -2.644531 11.992188 -2.765625 12.328125 -2.890625 C 12.671875 -3.015625 12.882812 -3.09375 12.96875 -3.125 L 12.96875 -9.84375 C 10.289062 -9.644531 8.347656 -9.210938 7.140625 -8.546875 C 5.929688 -7.890625 5.328125 -6.898438 5.328125 -5.578125 C 5.328125 -4.671875 5.671875 -3.90625 6.359375 -3.28125 C 7.046875 -2.664062 7.992188 -2.359375 9.203125 -2.359375 Z M 9.203125 -2.359375 "/></g></g></g><g fill="#222222" fill-opacity="1"><g transform="translate(160.841537, 60.044615)"><g><path d="M 3.5 -6.421875 L 4.09375 -3.125 C 4.519531 -2.8125 5.078125 -2.535156 5.765625 -2.296875 C 6.453125 -2.054688 7.234375 -1.9375 8.109375 -1.9375 C 9.742188 -1.9375 10.875 -2.257812 11.5 -2.90625 C 12.132812 -3.5625 12.453125 -4.460938 12.453125 -5.609375 C 12.453125 -6.347656 12.25 -6.941406 11.84375 -7.390625 C 11.4375 -7.835938 10.929688 -8.179688 10.328125 -8.421875 C 9.722656 -8.660156 8.882812 -8.921875 7.8125 -9.203125 C 6.457031 -9.546875 5.347656 -9.898438 4.484375 -10.265625 C 3.628906 -10.628906 2.898438 -11.21875 2.296875 -12.03125 C 1.691406 -12.851562 1.390625 -13.953125 1.390625 -15.328125 C 1.390625 -17.242188 2.109375 -18.710938 3.546875 -19.734375 C 4.984375 -20.765625 6.828125 -21.28125 9.078125 -21.28125 C 10.285156 -21.28125 11.476562 -21.15625 12.65625 -20.90625 C 13.84375 -20.65625 14.664062 -20.398438 15.125 -20.140625 L 14.53125 -14.859375 L 12.796875 -14.859375 L 12.203125 -18.25 C 12.203125 -18.269531 11.789062 -18.378906 10.96875 -18.578125 C 10.15625 -18.773438 9.414062 -18.875 8.75 -18.875 C 7.226562 -18.875 6.160156 -18.628906 5.546875 -18.140625 C 4.941406 -17.648438 4.640625 -16.867188 4.640625 -15.796875 C 4.640625 -15.148438 4.835938 -14.617188 5.234375 -14.203125 C 5.628906 -13.796875 6.113281 -13.476562 6.6875 -13.25 C 7.269531 -13.03125 8.082031 -12.78125 9.125 -12.5 C 10.5 -12.132812 11.628906 -11.753906 12.515625 -11.359375 C 13.410156 -10.960938 14.171875 -10.347656 14.796875 -9.515625 C 15.429688 -8.691406 15.75 -7.578125 15.75 -6.171875 C 15.75 -3.828125 15.023438 -2.148438 13.578125 -1.140625 C 12.128906 -0.128906 10.25 0.375 7.9375 0.375 C 6.5625 0.375 5.222656 0.191406 3.921875 -0.171875 C 2.628906 -0.535156 1.742188 -0.898438 1.265625 -1.265625 L 1.78125 -6.421875 Z M 3.5 -6.421875 "/></g></g></g><g fill="#222222" fill-opacity="1"><g transform="translate(173.762485, 60.044615)"><g><path d="M 20.0625 -20.859375 L 20.0625 -19.09375 L 17.78125 -18.421875 L 8.828125 4.609375 C 8.203125 6.210938 6.753906 7.015625 4.484375 7.015625 C 4.003906 7.015625 3.457031 6.96875 2.84375 6.875 C 2.238281 6.789062 1.726562 6.695312 1.3125 6.59375 L 1.3125 4.984375 L 6.125 3.765625 L 8.40625 -1.21875 L 1.515625 -18.375 L -0.921875 -19.046875 L -0.921875 -20.859375 L 8.3125 -20.859375 L 8.3125 -18.96875 L 5.53125 -18.578125 L 5.53125 -17.953125 L 9.890625 -6.546875 L 10.21875 -5.109375 L 10.734375 -6.96875 L 14.953125 -17.953125 L 14.953125 -18.453125 L 12.25 -18.921875 L 12.25 -20.859375 Z M 20.0625 -20.859375 "/></g></g></g><g fill="#222222" fill-opacity="1"><g transform="translate(28.463125, 57.839731)"><g><path d="M 14.9375 0.265625 L 2.75 -31.1875 L -0.46875 -32.03125 L -0.46875 -34.203125 L 12.1875 -34.203125 L 12.1875 -32.03125 L 8.234375 -31.1875 L 8.234375 -30.40625 L 16.25 -8.1875 L 16.890625 -6.390625 L 17.625 -8.390625 L 25.328125 -30.25 L 25.328125 -31.1875 L 21.109375 -32.03125 L 21.109375 -34.203125 L 32.25 -34.203125 L 32.25 -32.03125 L 29.140625 -31.1875 L 17.515625 0.265625 Z M 14.9375 0.265625 "/></g></g></g><g clip-path="url(#90efbd87e9)"><g clip-path="url(#7589a5d3a3)"><path fill="#222222" d="M 49.636719 14.582031 L 55.847656 14.582031 L 55.847656 20.792969 L 49.636719 20.792969 Z M 49.636719 14.582031 " fill-opacity="1" fill-rule="nonzero"/></g></g><g clip-path="url(#07de3d4019)"><g clip-path="url(#88e9ebbcd1)"><path fill="#222222" d="M 34.496094 14.582031 L 40.707031 14.582031 L 40.707031 20.792969 L 34.496094 20.792969 Z M 34.496094 14.582031 " fill-opacity="1" fill-rule="nonzero"/></g></g></svg>