<svg xmlns="http://www.w3.org/2000/svg" xmlns:xlink="http://www.w3.org/1999/xlink" width="500" zoomAndPan="magnify" viewBox="0 0 375 374.999991" height="500" preserveAspectRatio="xMidYMid meet" version="1.0"><defs><g/><clipPath id="6d1f84fc2c"><path d="M 58.199219 58.199219 L 316.800781 58.199219 L 316.800781 316.800781 L 58.199219 316.800781 Z M 58.199219 58.199219 " clip-rule="nonzero"/></clipPath><clipPath id="319eda2631"><path d="M 187.5 58.199219 C 116.089844 58.199219 58.199219 116.089844 58.199219 187.5 C 58.199219 258.910156 116.089844 316.800781 187.5 316.800781 C 258.910156 316.800781 316.800781 258.910156 316.800781 187.5 C 316.800781 116.089844 258.910156 58.199219 187.5 58.199219 Z M 187.5 58.199219 " clip-rule="nonzero"/></clipPath><clipPath id="546185c714"><path d="M 148.402344 106.699219 L 171.390625 106.699219 L 171.390625 129.691406 L 148.402344 129.691406 Z M 148.402344 106.699219 " clip-rule="nonzero"/></clipPath><clipPath id="a96cd5c6e2"><path d="M 159.894531 106.699219 C 153.546875 106.699219 148.402344 111.847656 148.402344 118.195312 C 148.402344 124.542969 153.546875 129.691406 159.894531 129.691406 C 166.246094 129.691406 171.390625 124.542969 171.390625 118.195312 C 171.390625 111.847656 166.246094 106.699219 159.894531 106.699219 Z M 159.894531 106.699219 " clip-rule="nonzero"/></clipPath><clipPath id="706cc781a2"><path d="M 204.71875 106.699219 L 227.707031 106.699219 L 227.707031 129.691406 L 204.71875 129.691406 Z M 204.71875 106.699219 " clip-rule="nonzero"/></clipPath><clipPath id="8f10711d46"><path d="M 216.214844 106.699219 C 209.863281 106.699219 204.71875 111.847656 204.71875 118.195312 C 204.71875 124.542969 209.863281 129.691406 216.214844 129.691406 C 222.5625 129.691406 227.707031 124.542969 227.707031 118.195312 C 227.707031 111.847656 222.5625 106.699219 216.214844 106.699219 Z M 216.214844 106.699219 " clip-rule="nonzero"/></clipPath></defs><g clip-path="url(#6d1f84fc2c)"><g clip-path="url(#319eda2631)"><path fill="#ffffff" d="M 58.199219 58.199219 L 316.800781 58.199219 L 316.800781 316.800781 L 58.199219 316.800781 Z M 58.199219 58.199219 " fill-opacity="1" fill-rule="nonzero"/></g></g><g fill="#222222" fill-opacity="1"><g transform="translate(125.20634, 266.803983)"><g><path d="M 55.296875 0.984375 L 10.15625 -115.46875 L -1.765625 -118.59375 L -1.765625 -126.609375 L 45.125 -126.609375 L 45.125 -118.59375 L 30.484375 -115.46875 L 30.484375 -112.53125 L 60.171875 -30.28125 L 62.515625 -23.640625 L 65.25 -31.0625 L 93.78125 -111.953125 L 93.78125 -115.46875 L 78.15625 -118.59375 L 78.15625 -126.609375 L 119.375 -126.609375 L 119.375 -118.59375 L 107.84375 -115.46875 L 64.859375 0.984375 Z M 55.296875 0.984375 "/></g></g></g><g fill="#222222" fill-opacity="1"><g transform="translate(136.994162, 274.964828)"><g><path d="M 44.234375 0.78125 L 8.125 -92.375 L -1.40625 -94.875 L -1.40625 -101.28125 L 36.109375 -101.28125 L 36.109375 -94.875 L 24.375 -92.375 L 24.375 -90.03125 L 48.140625 -24.21875 L 50.015625 -18.90625 L 52.203125 -24.84375 L 75.015625 -89.5625 L 75.015625 -92.375 L 62.515625 -94.875 L 62.515625 -101.28125 L 95.5 -101.28125 L 95.5 -94.875 L 86.28125 -92.375 L 51.890625 0.78125 Z M 44.234375 0.78125 "/></g></g></g><g clip-path="url(#546185c714)"><g clip-path="url(#a96cd5c6e2)"><path fill="#222222" d="M 148.402344 106.699219 L 171.390625 106.699219 L 171.390625 129.691406 L 148.402344 129.691406 Z M 148.402344 106.699219 " fill-opacity="1" fill-rule="nonzero"/></g></g><g clip-path="url(#706cc781a2)"><g clip-path="url(#8f10711d46)"><path fill="#222222" d="M 204.71875 106.699219 L 227.707031 106.699219 L 227.707031 129.691406 L 204.71875 129.691406 Z M 204.71875 106.699219 " fill-opacity="1" fill-rule="nonzero"/></g></g></svg>